# xmcd
# 
# Track frame offsets:
#     150
#     14914
#     51364
#     78061
#     100787
#     127034
#     142933
#     170081
#     198769
#     222020
#     246395
# 
# Disc length: 3728
# 
# Revision: 1
# Processed by: cddbd v1.5.2PL0 Copyright (c) Steve Scherf et al.
# Submitted via: BonkEnc v1.0.8
# 
DISCID=990e8e0b
DTITLE=Keith Richards - Keith Richards Life 4v6
DYEAR=2010
DGENRE=Hoerbuch
TTITLE0=Keith Richards Life 4v6 01
TTITLE1=Keith Richards Life 4v6 02
TTITLE2=Keith Richards Life 4v6 03
TTITLE3=Keith Richards Life 4v6 04
TTITLE4=Keith Richards Life 4v6 05
TTITLE5=Keith Richards Life 4v6 06
TTITLE6=Keith Richards Life 4v6 07
TTITLE7=Keith Richards Life 4v6 08
TTITLE8=Keith Richards Life 4v6 09
TTITLE9=Keith Richards Life 4v6 10
TTITLE10=Keith Richards Life 4v6 11
EXTD=YEAR: 2010
EXTT0=
EXTT1=
EXTT2=
EXTT3=
EXTT4=
EXTT5=
EXTT6=
EXTT7=
EXTT8=
EXTT9=
EXTT10=
PLAYORDER=
